<?xml version="1.0" encoding="UTF-8"?>
<svg version="1.1" xmlns="http://www.w3.org/2000/svg" width="927" height="249">
<path d="M0 0 C33.77384325 -0.60692953 64.30086849 9.98073019 88.921875 33.50390625 C89.81648437 34.36757813 90.71109375 35.23125 91.6328125 36.12109375 C92.72722656 37.13816406 92.72722656 37.13816406 93.84375 38.17578125 C118.02338921 61.2085601 126.59307975 91.79824907 128.6328125 124.12109375 C128.71917969 125.405 128.80554688 126.68890625 128.89453125 128.01171875 C129.93469777 158.28415117 114.87218905 188.16219603 94.796875 209.82421875 C94.08273438 210.5821875 93.36859375 211.34015625 92.6328125 212.12109375 C92.02179688 212.7965625 91.41078125 213.47203125 90.78125 214.16796875 C70.72944069 235.49968078 39.90979281 247.51955143 11.10449219 249.11914062 C-22.92660081 250.12047585 -55.78386921 238.96026359 -80.71044922 215.70361328 C-103.61942641 193.82091506 -118.74325117 164.71417187 -119.703125 132.65234375 C-119.733602 129.97368088 -119.75074918 127.29947389 -119.7421875 124.62109375 C-119.740979 123.9189978 -119.73977051 123.21690186 -119.73852539 122.49353027 C-119.58148958 88.75189653 -106.74645591 59.54183382 -83.1171875 35.43359375 C-76.7729938 29.15029382 -69.87813159 23.92734666 -62.3671875 19.12109375 C-61.51471436 18.57412842 -61.51471436 18.57412842 -60.64501953 18.01611328 C-42.35745097 6.49051015 -21.53347943 0.77440587 0 0 Z " fill="#B201FE" transform="translate(121.3671875,-0.12109375)"/>
<path d="M0 0 C33.77384325 -0.60692953 64.30086849 9.98073019 88.921875 33.50390625 C89.81648437 34.36757813 90.71109375 35.23125 91.6328125 36.12109375 C92.72722656 37.13816406 92.72722656 37.13816406 93.84375 38.17578125 C118.02338921 61.2085601 126.59307975 91.79824907 128.6328125 124.12109375 C128.71917969 125.405 128.80554688 126.68890625 128.89453125 128.01171875 C129.93469777 158.28415117 114.87218905 188.16219603 94.796875 209.82421875 C94.08273438 210.5821875 93.36859375 211.34015625 92.6328125 212.12109375 C92.02179688 212.7965625 91.41078125 213.47203125 90.78125 214.16796875 C70.72944069 235.49968078 39.90979281 247.51955143 11.10449219 249.11914062 C-22.92660081 250.12047585 -55.78386921 238.96026359 -80.71044922 215.70361328 C-103.61942641 193.82091506 -118.74325117 164.71417187 -119.703125 132.65234375 C-119.733602 129.97368088 -119.75074918 127.29947389 -119.7421875 124.62109375 C-119.740979 123.9189978 -119.73977051 123.21690186 -119.73852539 122.49353027 C-119.58148958 88.75189653 -106.74645591 59.54183382 -83.1171875 35.43359375 C-76.7729938 29.15029382 -69.87813159 23.92734666 -62.3671875 19.12109375 C-61.51471436 18.57412842 -61.51471436 18.57412842 -60.64501953 18.01611328 C-42.35745097 6.49051015 -21.53347943 0.77440587 0 0 Z M-71.1796875 58.99609375 C-82.3746727 72.65058328 -89.4293008 87.99633518 -93.3671875 105.12109375 C-93.5437085 105.88744141 -93.72022949 106.65378906 -93.90209961 107.44335938 C-94.82896082 112.77974455 -94.59463097 118.21880457 -94.6171875 123.62109375 C-94.6378125 124.82507813 -94.6584375 126.0290625 -94.6796875 127.26953125 C-94.79372995 153.78440148 -82.94900449 177.27579452 -64.8671875 195.99609375 C-45.01052948 215.1594327 -19.44785852 223.78413075 7.85522461 223.3996582 C35.58005295 222.60374386 59.58093151 210.37585076 78.671875 190.453125 C90.48085427 177.56184854 97.11437073 161.84801762 101.6328125 145.12109375 C101.973125 143.87972656 101.973125 143.87972656 102.3203125 142.61328125 C107.61699098 120.32309263 101.81731917 93.62983768 90.2578125 74.18359375 C86.49653341 68.12956087 82.37813848 62.44839367 77.6328125 57.12109375 C76.54613281 55.89326172 76.54613281 55.89326172 75.4375 54.640625 C57.47039091 35.51721681 32.27645742 25.51570386 6.30932617 24.65307617 C-23.84746451 24.30880257 -50.74479746 37.05794743 -71.1796875 58.99609375 Z " fill="#B20AFE" transform="translate(121.3671875,-0.12109375)"/>
<path d="M0 0 C20.49518777 15.13819815 35.2815227 38.31106196 39.38330078 63.61401367 C43.28665116 91.41865793 37.6027626 117.74803848 20.62939453 140.34057617 C17.77345917 143.83008081 14.7681555 147.10549943 11.62939453 150.34057617 C11.01837891 151.02506836 10.40736328 151.70956055 9.77783203 152.41479492 C0.79958246 162.13804818 -11.2915905 168.32809154 -23.37060547 173.34057617 C-24.28326172 173.73116211 -25.19591797 174.12174805 -26.13623047 174.52416992 C-46.64437865 182.70943959 -73.52297295 181.47281406 -94.05810547 173.71557617 C-96.52907028 172.63037311 -98.95010734 171.52581617 -101.37060547 170.34057617 C-102.02657715 170.0234668 -102.68254883 169.70635742 -103.35839844 169.37963867 C-113.88954718 164.17583427 -122.19382138 157.72483515 -130.37060547 149.34057617 C-131.60230469 148.12241211 -131.60230469 148.12241211 -132.85888672 146.87963867 C-152.2558067 126.712202 -157.92293725 100.56121899 -157.65185547 73.44604492 C-156.98433444 48.14366046 -144.35402755 24.52802491 -126.24560547 7.27807617 C-111.18515348 -5.95240469 -94.93608242 -13.68518632 -75.37060547 -17.65942383 C-74.58814453 -17.8527832 -73.80568359 -18.04614258 -72.99951172 -18.24536133 C-47.104832 -22.32386958 -21.13550886 -14.92724403 0 0 Z M-88.37060547 -3.65942383 C-89.04446289 -3.39097656 -89.71832031 -3.1225293 -90.41259766 -2.84594727 C-114.77782445 7.06031108 -131.63492186 24.75438772 -142.16430664 48.65942383 C-150.89963745 69.41956297 -149.2286097 94.55280161 -140.87451172 115.05151367 C-130.29614552 138.18653793 -112.98794092 155.14400274 -89.08935547 164.390625 C-66.59755185 172.56972348 -42.78444587 171.02190656 -21.07714844 161.26245117 C-14.30679798 158.01949588 -8.33102372 153.88909393 -2.37060547 149.34057617 C-1.39414062 148.64061523 -1.39414062 148.64061523 -0.39794922 147.92651367 C15.37850069 135.76783124 26.53157612 113.14935052 29.31298828 93.75463867 C31.73781739 67.59043327 25.92214206 44.1386262 9.36767578 23.52416992 C7.19585651 21.04154929 4.95946749 18.67472981 2.62939453 16.34057617 C1.94490234 15.64448242 1.26041016 14.94838867 0.55517578 14.23120117 C-17.78585242 -3.2622749 -41.78915238 -8.32017029 -66.26513672 -7.96411133 C-74.2202985 -7.71360396 -80.9443967 -6.68112257 -88.37060547 -3.65942383 Z " fill="#F6F5FC" transform="translate(184.37060546875,43.659423828125)"/>
<path d="M0 0 C7.09243471 4.84392733 11.51460021 11.06786198 13.61328125 19.44921875 C15.36136353 30.97949885 13.58734897 41.38216837 6.81640625 50.953125 C3.05390298 55.19302116 -1.63919637 58.21306546 -7 60 C-9.61864161 60.1484944 -12.1932477 60.2310027 -14.8125 60.25 C-15.51181641 60.270625 -16.21113281 60.29125 -16.93164062 60.3125 C-21.73785035 60.34846789 -24.9316008 59.54200709 -29 57 C-29.99 56.01 -30.98 55.02 -32 54 C-32.33 63.9 -32.66 73.8 -33 84 C-38.61 84 -44.22 84 -50 84 C-50 55.62 -50 27.24 -50 -2 C-44.72 -2 -39.44 -2 -34 -2 C-33.67 -0.35 -33.34 1.3 -33 3 C-31.700625 1.824375 -31.700625 1.824375 -30.375 0.625 C-21.68201702 -6.47829396 -9.2458401 -5.81314947 0 0 Z M-31.3125 18.6875 C-34.13805329 24.23395647 -34.6677559 28.77414701 -32.875 34.75 C-30.27539002 39.25599063 -27.09665971 43.35108068 -22 45 C-16.75349908 45.48578712 -13.42366728 44.8850004 -9 42 C-4.78493018 37.84173705 -2.86244188 34.17960892 -2.6875 28.25 C-2.75708336 22.94620137 -3.78907369 20.22490304 -7 16 C-10.5361679 12.71641552 -13.28176794 11.71961741 -18 11.5 C-24.14437218 11.77677352 -27.33457107 14.06450151 -31.3125 18.6875 Z " fill="#000000" transform="translate(327,97)"/>
<path d="M0 0 C5.61 0 11.22 0 17 0 C17 10.23 17 20.46 17 31 C19.97 28.525 19.97 28.525 23 26 C29.16507129 22.91746436 37.05866968 22.91978354 43.63671875 24.72265625 C49.66560742 27.18403724 52.53819378 30.23350074 55.58325195 35.99633789 C57.60524067 40.82086562 57.3752699 45.5899203 57.29296875 50.74609375 C57.28872391 51.75720718 57.28447906 52.76832062 57.28010559 53.81007385 C57.26339754 57.01949401 57.22575953 60.22827165 57.1875 63.4375 C57.17244301 65.62173568 57.15875638 67.80598127 57.14648438 69.99023438 C57.11351973 75.3270681 57.06179158 80.66342535 57 86 C51.72 86 46.44 86 41 86 C40.95101562 83.41027344 40.90203125 80.82054687 40.8515625 78.15234375 C40.7974567 75.62697887 40.74018705 73.10170402 40.68261719 70.57641602 C40.64448087 68.82974027 40.60960198 67.08299009 40.578125 65.33618164 C40.53213913 62.81629954 40.47420253 60.2969231 40.4140625 57.77734375 C40.40251129 57.00414291 40.39096008 56.23094208 40.37905884 55.43431091 C40.25032251 50.63827898 39.7339524 46.49887397 38 42 C35.22947819 41.07649273 33.43311242 40.83670415 30.5625 40.8125 C29.80066406 40.79832031 29.03882813 40.78414062 28.25390625 40.76953125 C25.67160928 41.03357895 24.21604003 41.65703572 22 43 C18.21382024 48.01703643 17.40100057 53.32101664 17.390625 59.4375 C17.37408875 60.20304199 17.35755249 60.96858398 17.34051514 61.75732422 C17.29242894 64.17163424 17.27075383 66.58531645 17.25 69 C17.2218071 70.64977051 17.19187509 72.29951227 17.16015625 73.94921875 C17.08344581 77.96642361 17.0425666 81.98171265 17 86 C11.39 86 5.78 86 0 86 C0 57.62 0 29.24 0 0 Z " fill="#000000" transform="translate(347,69)"/>
<path d="M0 0 C7.29849041 5.24916059 12.03774878 11.55509538 13.62890625 20.5234375 C14.51882605 31.61320736 13.54097878 41.1873668 6.25390625 49.9609375 C0.63830776 55.81600714 -5.36666718 59.43469197 -13.578125 59.859375 C-29.71414053 60.17778031 -29.71414053 60.17778031 -36.37109375 55.5234375 C-37.42683594 54.79447266 -37.42683594 54.79447266 -38.50390625 54.05078125 C-44.78055828 49.15221333 -47.88736157 42.97463404 -50.37109375 35.5234375 C-51.18508177 24.63467972 -50.60852933 14.54500848 -43.62109375 5.6484375 C-32.48522272 -6.04843459 -13.77212315 -8.57637982 0 0 Z M-31.18359375 17.5859375 C-34.20285008 22.51209257 -33.90987936 27.94036921 -33.37109375 33.5234375 C-32.08784485 37.99437476 -29.57990295 40.71212769 -25.55859375 42.9609375 C-21.10411843 44.86646305 -17.21256558 45.53653611 -12.51953125 43.86328125 C-8.65166983 41.96226851 -5.99879293 39.59133586 -4.02734375 35.6484375 C-2.31439586 30.10174911 -2.68342265 24.51406436 -4.55859375 19.0859375 C-6.96998275 15.67673236 -9.6387913 13.38958872 -13.37109375 11.5234375 C-21.00164968 10.68627219 -25.92284756 11.59957115 -31.18359375 17.5859375 Z " fill="#000000" transform="translate(834.37109375,97.4765625)"/>
<path d="M0 0 C5.8332362 4.65480465 8.68614271 11.26386007 10.6875 18.3125 C11.72338624 28.37023266 10.77769232 37.43058627 4.921875 45.8515625 C-0.04362664 51.85317275 -4.93149941 54.85216647 -12.3125 57.3125 C-24.54862331 58.05741369 -33.66862984 57.97438038 -43.5625 50.125 C-49.55876571 44.57157228 -53.00373353 37.89844141 -53.55078125 29.7734375 C-53.84503162 18.9458191 -52.73433292 10.09157975 -45.01171875 1.84375 C-31.95249925 -9.92455815 -14.1727198 -9.47487227 0 0 Z M-34.6875 15.8125 C-37.30492662 21.45003425 -37.4525304 27.52813873 -35.65234375 33.50390625 C-33.38671492 38.04497182 -29.99194682 40.66093053 -25.3125 42.3125 C-20.07285593 42.95596506 -16.72879123 42.19268993 -12.3125 39.3125 C-8.19237233 35.14795047 -6.15376965 31.99252626 -6 26.125 C-6.06551756 20.56328693 -6.90344688 17.70838429 -10.3125 13.3125 C-13.8486679 10.02891552 -16.59426794 9.03211741 -21.3125 8.8125 C-27.42609464 9.08788715 -30.53055603 11.4367695 -34.6875 15.8125 Z " fill="#000000" transform="translate(575.3125,99.6875)"/>
<path d="M0 0 C8.08370619 5.62048932 12.38009203 12.12462197 14.515625 21.72265625 C16.07755474 32.29087439 13.91182659 41.12558762 8 50 C5.89606023 52.49560397 3.75653797 54.26567819 1 56 C0.401875 56.40992188 -0.19625 56.81984375 -0.8125 57.2421875 C-8.92988529 61.83992526 -20.30607358 61.30967311 -29.17578125 59.26953125 C-38.43824609 55.82597452 -43.75350538 49.74278304 -48 41 C-51.2674586 32.62993483 -50.69148103 22.46440739 -47.375 14.1875 C-42.9410305 5.55709508 -37.00658689 0.51513358 -28 -3 C-18.77151578 -5.92610475 -8.4300511 -4.47764396 0 0 Z M-31 19 C-33.16461952 23.32923903 -33.49653806 27.20013208 -33 32 C-31.1697387 37.27313122 -28.77670529 40.93800943 -24 44 C-19.29477445 45.56840852 -15.47351184 45.54895539 -10.8125 43.8125 C-6.25113839 40.87295585 -3.46027222 37.23264213 -2 32 C-1.37794988 25.67582375 -2.30398457 21.23698739 -6 16 C-9.54298931 12.54342506 -12.55663823 11.66571324 -17.375 11.3125 C-23.65689674 11.54389319 -27.16785904 14.15836922 -31 19 Z " fill="#000000" transform="translate(461,97)"/>
<path d="M0 0 C5.61 0 11.22 0 17 0 C17.03738281 2.67351562 17.07476563 5.34703125 17.11328125 8.1015625 C17.15954896 10.70304344 17.21076347 13.30438348 17.26245117 15.90576172 C17.29561773 17.70775729 17.32367525 19.50985467 17.34643555 21.31201172 C17.38013432 23.90896823 17.43245649 26.50499866 17.48828125 29.1015625 C17.49467117 29.9017984 17.5010611 30.7020343 17.50764465 31.52651978 C17.63400371 36.38023751 18.29841971 39.80798882 21 44 C24.75456567 46.50304378 26.54745934 46.45280074 31 46 C35.56777219 43.80395568 37.51389228 41.67027535 39.39541626 36.98922729 C40.43536648 33.56753859 40.48057836 30.21504409 40.51171875 26.66015625 C40.52966995 25.89319931 40.54762115 25.12624237 40.56611633 24.33604431 C40.6198448 21.91158374 40.65399275 19.48731568 40.6875 17.0625 C40.72070634 15.40817654 40.75519902 13.75387838 40.79101562 12.09960938 C40.87794729 8.06638434 40.93833097 4.03400496 41 0 C46.61 0 52.22 0 58 0 C58 19.8 58 39.6 58 60 C52.72 60 47.44 60 42 60 C41.67 58.35 41.34 56.7 41 55 C40.113125 55.78375 39.22625 56.5675 38.3125 57.375 C33.47355173 61.65127987 28.92641101 62.29327368 22.5625 62.3125 C21.28503906 62.32925781 20.00757813 62.34601563 18.69140625 62.36328125 C13.17690006 61.82058382 9.27557992 59.90606133 5.75 55.625 C-0.21727148 48.17759591 -0.15410744 39.74096438 -0.09765625 30.56640625 C-0.0962413 29.68846909 -0.09482635 28.81053192 -0.09336853 27.9059906 C-0.08780821 25.12479118 -0.07526321 22.34367474 -0.0625 19.5625 C-0.05747987 17.66731888 -0.05291786 15.77213648 -0.04882812 13.87695312 C-0.0378518 9.25127052 -0.02061482 4.62564929 0 0 Z " fill="#000000" transform="translate(635,95)"/>
<path d="M0 0 C7.11419175 7.3064672 7.46914563 17.06487941 7.41015625 26.7109375 C7.4087413 27.59028961 7.40732635 28.46964172 7.40586853 29.37564087 C7.40029877 32.16712942 7.3877519 34.95853594 7.375 37.75 C7.36998109 39.64973842 7.36541887 41.5494781 7.36132812 43.44921875 C7.35033925 48.09117714 7.33309557 52.73307469 7.3125 57.375 C1.7025 57.375 -3.9075 57.375 -9.6875 57.375 C-9.74357422 53.36472656 -9.74357422 53.36472656 -9.80078125 49.2734375 C-9.84704896 46.67195656 -9.89826347 44.07061652 -9.94995117 41.46923828 C-9.98311773 39.66724271 -10.01117525 37.86514533 -10.03393555 36.06298828 C-10.06763432 33.46603177 -10.11995649 30.87000134 -10.17578125 28.2734375 C-10.18217117 27.4732016 -10.1885611 26.6729657 -10.19514465 25.84848022 C-10.32152007 20.99413379 -11.01214112 17.5842313 -13.6875 13.375 C-16.01345946 12.21202027 -17.47473231 12.20899309 -20.0625 12.1875 C-20.83335937 12.17332031 -21.60421875 12.15914062 -22.3984375 12.14453125 C-24.95730624 12.40216479 -26.51472268 13.01526194 -28.6875 14.375 C-32.55946253 19.82442875 -32.85287301 24.66869629 -33.00390625 31.203125 C-33.02468735 31.95213074 -33.04546844 32.70113647 -33.06687927 33.47283936 C-33.13207088 35.85680288 -33.19111783 38.24087312 -33.25 40.625 C-33.29321416 42.24480254 -33.33682937 43.86459443 -33.38085938 45.484375 C-33.48847311 49.44780905 -33.58777164 53.41132834 -33.6875 57.375 C-39.2975 57.375 -44.9075 57.375 -50.6875 57.375 C-50.6875 37.575 -50.6875 17.775 -50.6875 -2.625 C-45.4075 -2.625 -40.1275 -2.625 -34.6875 -2.625 C-34.3575 -0.645 -34.0275 1.335 -33.6875 3.375 C-33.006875 2.611875 -32.32625 1.84875 -31.625 1.0625 C-22.20564436 -7.55520835 -10.31935725 -6.23961136 0 0 Z " fill="#000000" transform="translate(904.6875,97.625)"/>
<path d="M0 0 C6.97559326 4.02175898 12.90703083 10.2239485 15.2890625 18.03515625 C17.01629801 26.82373691 15.07419787 34.76466643 10.25 42.25 C5.44688119 48.15334061 -1.24951055 51.50128799 -8.734375 52.53515625 C-18.21705167 52.78642533 -25.17285127 50.34965336 -32.3125 44.0625 C-38.77306204 35.85584011 -39.32959022 27.20128352 -38.3125 17.0625 C-35.77390863 8.80912618 -29.28351093 3.47625174 -22.125 -0.875 C-14.68236091 -2.94917811 -7.15276382 -3.19004436 0 0 Z " fill="#F7F9FC" transform="translate(137.3125,98.9375)"/>
<path d="M0 0 C3.19663332 2.48365873 5.39281752 5.23844782 7.15625 8.86328125 C7.15625 9.52328125 7.15625 10.18328125 7.15625 10.86328125 C5.24584948 11.73137205 3.32764263 12.58229908 1.40625 13.42578125 C0.33890625 13.90144531 -0.7284375 14.37710938 -1.828125 14.8671875 C-4.85764077 15.86786952 -5.98468505 16.14250494 -8.84375 14.86328125 C-9.565625 14.18265625 -10.2875 13.50203125 -11.03125 12.80078125 C-14.49531894 10.41442265 -16.65824215 10.42269165 -20.7578125 10.4296875 C-23.29353435 10.95677575 -24.21105848 11.9030115 -25.84375 13.86328125 C-22.30281977 18.36559307 -18.4103167 19.05509919 -13.09375 20.30078125 C1.88049613 24.16577572 1.88049613 24.16577572 6.65625 30.98828125 C8.96579226 35.74200277 9.00580635 40.72161845 8.15625 45.86328125 C5.94184762 51.51707457 2.53151357 55.01110058 -2.84375 57.86328125 C-7.89682794 59.93691471 -12.34457828 60.19821102 -17.71875 60.17578125 C-18.86537109 60.19995117 -18.86537109 60.19995117 -20.03515625 60.22460938 C-28.19890013 60.23153955 -34.36336787 57.94792595 -40.3671875 52.41015625 C-43.73260907 48.88447651 -44.84375 46.76204901 -44.84375 41.86328125 C-42.90907058 41.02342041 -40.97089871 40.19160098 -39.03125 39.36328125 C-37.95230469 38.89921875 -36.87335937 38.43515625 -35.76171875 37.95703125 C-32.84375 36.86328125 -32.84375 36.86328125 -29.84375 36.86328125 C-28.60363205 38.36447666 -27.36565673 39.86768318 -26.15234375 41.390625 C-24.20708454 43.57976745 -22.7071686 44.26396108 -19.84375 44.86328125 C-16.35326976 44.72851367 -13.00690755 44.44486003 -9.84375 42.86328125 C-9.84375 41.21328125 -9.84375 39.56328125 -9.84375 37.86328125 C-15.9502809 35.42066889 -22.10675427 33.66199619 -28.4765625 32.0234375 C-34.33000111 30.00664949 -38.33142593 26.93663824 -41.84375 21.86328125 C-43.56612197 16.69616535 -43.49936622 11.75728367 -41.71875 6.61328125 C-32.84545877 -6.40087922 -12.97552764 -7.99974268 0 0 Z " fill="#000000" transform="translate(743.84375,97.13671875)"/>
<path d="M0 0 C0.78890625 -0.00386719 1.5778125 -0.00773437 2.390625 -0.01171875 C8.24834606 -0.00165394 8.24834606 -0.00165394 9.375 1.125 C9.44819621 3.82154854 9.46742537 6.49191458 9.4375 9.1875 C9.43298828 9.94611328 9.42847656 10.70472656 9.42382812 11.48632812 C9.4120068 13.36591871 9.39407078 15.24546899 9.375 17.125 C8.69953125 17.02960938 8.0240625 16.93421875 7.328125 16.8359375 C6.43609375 16.72507812 5.5440625 16.61421875 4.625 16.5 C3.30242188 16.32597656 3.30242188 16.32597656 1.953125 16.1484375 C-0.94723522 16.12207059 -2.30608394 16.38581296 -4.625 18.125 C-5.53660093 20.29708588 -5.53660093 20.29708588 -5.875 22.75 C-6.1225 24.19375 -6.37 25.6375 -6.625 27.125 C-2.005 27.125 2.615 27.125 7.375 27.125 C7.375 31.745 7.375 36.365 7.375 41.125 C2.755 41.125 -1.865 41.125 -6.625 41.125 C-6.625 56.305 -6.625 71.485 -6.625 87.125 C-12.235 87.125 -17.845 87.125 -23.625 87.125 C-23.625 71.945 -23.625 56.765 -23.625 41.125 C-27.255 41.125 -30.885 41.125 -34.625 41.125 C-34.625 36.505 -34.625 31.885 -34.625 27.125 C-30.995 27.125 -27.365 27.125 -23.625 27.125 C-23.7075 25.68125 -23.79 24.2375 -23.875 22.75 C-23.83741759 16.11670524 -22.52274137 9.99941951 -17.68359375 5.19921875 C-11.85234925 0.69960283 -7.30429059 -0.03615985 0 0 Z " fill="#000000" transform="translate(621.625,67.875)"/>
<path d="M0 0 C5.61 0 11.22 0 17 0 C17 5.94 17 11.88 17 18 C21.95 18 26.9 18 32 18 C32 22.62 32 27.24 32 32 C27.05 32 22.1 32 17 32 C17.11372255 36.4172234 17.24048436 40.833403 17.375 45.25 C17.4059375 46.50425781 17.436875 47.75851563 17.46875 49.05078125 C17.50742187 50.25605469 17.54609375 51.46132812 17.5859375 52.703125 C17.63306885 54.36843262 17.63306885 54.36843262 17.68115234 56.06738281 C17.99176658 58.92427269 18.37575725 60.64564386 20 63 C25.01644599 64.59614191 26.69109889 63.7696337 32 62 C32 67.61 32 73.22 32 79 C25.61129585 81.12956805 16.73545854 81.16021499 10.30859375 79.1640625 C5.36707334 76.36980617 2.71297682 72.35184284 1 67 C0.13241279 62.635642 -0.11732838 58.51621409 -0.09765625 54.0703125 C-0.09443359 52.78125 -0.09121094 51.4921875 -0.08789062 50.1640625 C-0.07953733 48.81770764 -0.07107241 47.47135348 -0.0625 46.125 C-0.0574783 44.75520996 -0.05291657 43.38541815 -0.04882812 42.015625 C-0.03707254 38.6770381 -0.02063964 35.33854185 0 32 C-3.3 32 -6.6 32 -10 32 C-10 27.38 -10 22.76 -10 18 C-6.7 18 -3.4 18 0 18 C0 12.06 0 6.12 0 0 Z " fill="#000000" transform="translate(487,77)"/>
<path d="M0 0 C0 9.57 0 19.14 0 29 C-3.3 30.32 -6.6 31.64 -10 33 C-13.01479423 35.07133531 -13.01479423 35.07133531 -15.375 37.4375 C-16.16648438 38.17871094 -16.95796875 38.91992188 -17.7734375 39.68359375 C-20.01446804 42.01505184 -22.02392685 44.4419327 -24 47 C-27.5382203 46.37658609 -30.73293028 45.44678155 -34.08203125 44.15234375 C-35.01337891 43.79462891 -35.94472656 43.43691406 -36.90429688 43.06835938 C-37.86400391 42.69517578 -38.82371094 42.32199219 -39.8125 41.9375 C-40.79154297 41.56044922 -41.77058594 41.18339844 -42.77929688 40.79492188 C-45.1876001 39.86684405 -47.59441614 38.93509884 -50 38 C-48.13031136 27.43071492 -39.22765193 18.79148382 -30.80078125 12.6796875 C-21.72256899 6.51385702 -11.28945252 0 0 0 Z " fill="#F6F8FC" transform="translate(114,55)"/>
<path d="M0 0 C5.61 0 11.22 0 17 0 C17 19.8 17 39.6 17 60 C11.39 60 5.78 60 0 60 C0 40.2 0 20.4 0 0 Z " fill="#000000" transform="translate(759,95)"/>
<path d="M0 0 C3.55353879 0.50974635 6.74270929 1.55699807 10.08203125 2.84765625 C11.01337891 3.20537109 11.94472656 3.56308594 12.90429688 3.93164062 C13.86400391 4.30482422 14.82371094 4.67800781 15.8125 5.0625 C16.79154297 5.43955078 17.77058594 5.81660156 18.77929688 6.20507812 C21.18757732 7.13314718 23.59397597 8.06609677 26 9 C25.34 13.29 24.68 17.58 24 22 C14.76 22 5.52 22 -4 22 C-4 9.59808612 -4 9.59808612 -2.5625 5.375 C-2.16224609 4.14910156 -2.16224609 4.14910156 -1.75390625 2.8984375 C-1 1 -1 1 0 0 Z " fill="#F5F3FC" transform="translate(60,99)"/>
<path d="M0 0 C3.125 1.875 3.125 1.875 5 5 C5.68394713 8.47673126 5.7296881 11.52828081 5 15 C2.80977082 17.82424288 1.16982793 19.41508603 -2 21 C-6.19946671 21.04053539 -9.87265006 20.67640997 -13.5 18.5 C-15.71787249 14.80354586 -16.20660564 11.28515409 -16 7 C-12.84504225 -0.41415072 -7.32962485 -1.08543808 0 0 Z " fill="#000000" transform="translate(773,68)"/>
<path d="M0 0 C2.5 1.5 2.5 1.5 4 4 C4.60443392 6.80917861 4.66040854 9.19757073 4 12 C1.45767292 14.99097304 -0.1574697 15.84202557 -4 16.5625 C-8.13607554 15.78698584 -9.54999553 14.38677089 -12 11 C-12.62491523 7.04220351 -12.61006839 4.99136114 -10.5 1.5625 C-6.97441116 -0.64099302 -4.04985528 -0.79669284 0 0 Z " fill="#F6F5FC" transform="translate(163,150)"/>
</svg>
