<?xml version="1.0" encoding="UTF-8"?>
<svg version="1.1" xmlns="http://www.w3.org/2000/svg" width="248" height="249">
<path d="M0 0 C33.77384325 -0.60692953 64.30086849 9.98073019 88.921875 33.50390625 C89.81648437 34.36757813 90.71109375 35.23125 91.6328125 36.12109375 C92.72722656 37.13816406 92.72722656 37.13816406 93.84375 38.17578125 C118.02338921 61.2085601 126.59307975 91.79824907 128.6328125 124.12109375 C128.71917969 125.405 128.80554688 126.68890625 128.89453125 128.01171875 C129.93469777 158.28415117 114.87218905 188.16219603 94.796875 209.82421875 C94.08273438 210.5821875 93.36859375 211.34015625 92.6328125 212.12109375 C92.02179688 212.7965625 91.41078125 213.47203125 90.78125 214.16796875 C70.72944069 235.49968078 39.90979281 247.51955143 11.10449219 249.11914062 C-22.92660081 250.12047585 -55.78386921 238.96026359 -80.71044922 215.70361328 C-103.61942641 193.82091506 -118.74325117 164.71417187 -119.703125 132.65234375 C-119.733602 129.97368088 -119.75074918 127.29947389 -119.7421875 124.62109375 C-119.740979 123.9189978 -119.73977051 123.21690186 -119.73852539 122.49353027 C-119.58148958 88.75189653 -106.74645591 59.54183382 -83.1171875 35.43359375 C-76.7729938 29.15029382 -69.87813159 23.92734666 -62.3671875 19.12109375 C-61.51471436 18.57412842 -61.51471436 18.57412842 -60.64501953 18.01611328 C-42.35745097 6.49051015 -21.53347943 0.77440587 0 0 Z " fill="#B201FE" transform="translate(119.3671875,-0.12109375)"/>
<path d="M0 0 C33.77384325 -0.60692953 64.30086849 9.98073019 88.921875 33.50390625 C89.81648437 34.36757813 90.71109375 35.23125 91.6328125 36.12109375 C92.72722656 37.13816406 92.72722656 37.13816406 93.84375 38.17578125 C118.02338921 61.2085601 126.59307975 91.79824907 128.6328125 124.12109375 C128.71917969 125.405 128.80554688 126.68890625 128.89453125 128.01171875 C129.93469777 158.28415117 114.87218905 188.16219603 94.796875 209.82421875 C94.08273438 210.5821875 93.36859375 211.34015625 92.6328125 212.12109375 C92.02179688 212.7965625 91.41078125 213.47203125 90.78125 214.16796875 C70.72944069 235.49968078 39.90979281 247.51955143 11.10449219 249.11914062 C-22.92660081 250.12047585 -55.78386921 238.96026359 -80.71044922 215.70361328 C-103.61942641 193.82091506 -118.74325117 164.71417187 -119.703125 132.65234375 C-119.733602 129.97368088 -119.75074918 127.29947389 -119.7421875 124.62109375 C-119.740979 123.9189978 -119.73977051 123.21690186 -119.73852539 122.49353027 C-119.58148958 88.75189653 -106.74645591 59.54183382 -83.1171875 35.43359375 C-76.7729938 29.15029382 -69.87813159 23.92734666 -62.3671875 19.12109375 C-61.51471436 18.57412842 -61.51471436 18.57412842 -60.64501953 18.01611328 C-42.35745097 6.49051015 -21.53347943 0.77440587 0 0 Z M-71.1796875 58.99609375 C-82.3746727 72.65058328 -89.4293008 87.99633518 -93.3671875 105.12109375 C-93.5437085 105.88744141 -93.72022949 106.65378906 -93.90209961 107.44335938 C-94.82896082 112.77974455 -94.59463097 118.21880457 -94.6171875 123.62109375 C-94.6378125 124.82507813 -94.6584375 126.0290625 -94.6796875 127.26953125 C-94.79372995 153.78440148 -82.94900449 177.27579452 -64.8671875 195.99609375 C-45.01052948 215.1594327 -19.44785852 223.78413075 7.85522461 223.3996582 C35.58005295 222.60374386 59.58093151 210.37585076 78.671875 190.453125 C90.48085427 177.56184854 97.11437073 161.84801762 101.6328125 145.12109375 C101.973125 143.87972656 101.973125 143.87972656 102.3203125 142.61328125 C107.61699098 120.32309263 101.81731917 93.62983768 90.2578125 74.18359375 C86.49653341 68.12956087 82.37813848 62.44839367 77.6328125 57.12109375 C76.54613281 55.89326172 76.54613281 55.89326172 75.4375 54.640625 C57.47039091 35.51721681 32.27645742 25.51570386 6.30932617 24.65307617 C-23.84746451 24.30880257 -50.74479746 37.05794743 -71.1796875 58.99609375 Z " fill="#B20AFE" transform="translate(119.3671875,-0.12109375)"/>
<path d="M0 0 C20.49518777 15.13819815 35.2815227 38.31106196 39.38330078 63.61401367 C43.28665116 91.41865793 37.6027626 117.74803848 20.62939453 140.34057617 C17.77345917 143.83008081 14.7681555 147.10549943 11.62939453 150.34057617 C11.01837891 151.02506836 10.40736328 151.70956055 9.77783203 152.41479492 C0.79958246 162.13804818 -11.2915905 168.32809154 -23.37060547 173.34057617 C-24.28326172 173.73116211 -25.19591797 174.12174805 -26.13623047 174.52416992 C-46.64437865 182.70943959 -73.52297295 181.47281406 -94.05810547 173.71557617 C-96.52907028 172.63037311 -98.95010734 171.52581617 -101.37060547 170.34057617 C-102.02657715 170.0234668 -102.68254883 169.70635742 -103.35839844 169.37963867 C-113.88954718 164.17583427 -122.19382138 157.72483515 -130.37060547 149.34057617 C-131.60230469 148.12241211 -131.60230469 148.12241211 -132.85888672 146.87963867 C-152.2558067 126.712202 -157.92293725 100.56121899 -157.65185547 73.44604492 C-156.98433444 48.14366046 -144.35402755 24.52802491 -126.24560547 7.27807617 C-111.18515348 -5.95240469 -94.93608242 -13.68518632 -75.37060547 -17.65942383 C-74.58814453 -17.8527832 -73.80568359 -18.04614258 -72.99951172 -18.24536133 C-47.104832 -22.32386958 -21.13550886 -14.92724403 0 0 Z M-88.37060547 -3.65942383 C-89.04446289 -3.39097656 -89.71832031 -3.1225293 -90.41259766 -2.84594727 C-114.77782445 7.06031108 -131.63492186 24.75438772 -142.16430664 48.65942383 C-150.89963745 69.41956297 -149.2286097 94.55280161 -140.87451172 115.05151367 C-130.29614552 138.18653793 -112.98794092 155.14400274 -89.08935547 164.390625 C-66.59755185 172.56972348 -42.78444587 171.02190656 -21.07714844 161.26245117 C-14.30679798 158.01949588 -8.33102372 153.88909393 -2.37060547 149.34057617 C-1.39414062 148.64061523 -1.39414062 148.64061523 -0.39794922 147.92651367 C15.37850069 135.76783124 26.53157612 113.14935052 29.31298828 93.75463867 C31.73781739 67.59043327 25.92214206 44.1386262 9.36767578 23.52416992 C7.19585651 21.04154929 4.95946749 18.67472981 2.62939453 16.34057617 C1.94490234 15.64448242 1.26041016 14.94838867 0.55517578 14.23120117 C-17.78585242 -3.2622749 -41.78915238 -8.32017029 -66.26513672 -7.96411133 C-74.2202985 -7.71360396 -80.9443967 -6.68112257 -88.37060547 -3.65942383 Z " fill="#F6F5FC" transform="translate(182.37060546875,43.659423828125)"/>
<path d="M0 0 C6.97559326 4.02175898 12.90703083 10.2239485 15.2890625 18.03515625 C17.01629801 26.82373691 15.07419787 34.76466643 10.25 42.25 C5.44688119 48.15334061 -1.24951055 51.50128799 -8.734375 52.53515625 C-18.21705167 52.78642533 -25.17285127 50.34965336 -32.3125 44.0625 C-38.77306204 35.85584011 -39.32959022 27.20128352 -38.3125 17.0625 C-35.77390863 8.80912618 -29.28351093 3.47625174 -22.125 -0.875 C-14.68236091 -2.94917811 -7.15276382 -3.19004436 0 0 Z " fill="#F7F9FC" transform="translate(135.3125,98.9375)"/>
<path d="M0 0 C0 9.57 0 19.14 0 29 C-3.3 30.32 -6.6 31.64 -10 33 C-13.01479423 35.07133531 -13.01479423 35.07133531 -15.375 37.4375 C-16.16648438 38.17871094 -16.95796875 38.91992188 -17.7734375 39.68359375 C-20.01446804 42.01505184 -22.02392685 44.4419327 -24 47 C-27.5382203 46.37658609 -30.73293028 45.44678155 -34.08203125 44.15234375 C-35.01337891 43.79462891 -35.94472656 43.43691406 -36.90429688 43.06835938 C-37.86400391 42.69517578 -38.82371094 42.32199219 -39.8125 41.9375 C-40.79154297 41.56044922 -41.77058594 41.18339844 -42.77929688 40.79492188 C-45.1876001 39.86684405 -47.59441614 38.93509884 -50 38 C-48.13031136 27.43071492 -39.22765193 18.79148382 -30.80078125 12.6796875 C-21.72256899 6.51385702 -11.28945252 0 0 0 Z " fill="#F6F8FC" transform="translate(112,55)"/>
<path d="M0 0 C3.55353879 0.50974635 6.74270929 1.55699807 10.08203125 2.84765625 C11.01337891 3.20537109 11.94472656 3.56308594 12.90429688 3.93164062 C13.86400391 4.30482422 14.82371094 4.67800781 15.8125 5.0625 C16.79154297 5.43955078 17.77058594 5.81660156 18.77929688 6.20507812 C21.18757732 7.13314718 23.59397597 8.06609677 26 9 C25.34 13.29 24.68 17.58 24 22 C14.76 22 5.52 22 -4 22 C-4 9.59808612 -4 9.59808612 -2.5625 5.375 C-2.16224609 4.14910156 -2.16224609 4.14910156 -1.75390625 2.8984375 C-1 1 -1 1 0 0 Z " fill="#F5F3FC" transform="translate(58,99)"/>
<path d="M0 0 C2.5 1.5 2.5 1.5 4 4 C4.60443392 6.80917861 4.66040854 9.19757073 4 12 C1.45767292 14.99097304 -0.1574697 15.84202557 -4 16.5625 C-8.13607554 15.78698584 -9.54999553 14.38677089 -12 11 C-12.62491523 7.04220351 -12.61006839 4.99136114 -10.5 1.5625 C-6.97441116 -0.64099302 -4.04985528 -0.79669284 0 0 Z " fill="#F6F5FC" transform="translate(161,150)"/>
</svg>
